<?xml version="1.0" standalone="no"?>
<!DOCTYPE svg PUBLIC "-//W3C//DTD SVG 20010904//EN"
 "http://www.w3.org/TR/2001/REC-SVG-20010904/DTD/svg10.dtd">
<svg version="1.0" xmlns="http://www.w3.org/2000/svg"
 width="1280.000000pt" height="1223.000000pt" viewBox="0 0 1280.000000 1223.000000"
 preserveAspectRatio="xMidYMid meet">
<metadata>
Created by potrace 1.15, written by Peter Selinger 2001-2017
</metadata>
<g transform="translate(0.000000,1223.000000) scale(0.100000,-0.100000)"
fill="#000000" stroke="none">
<path d="M553 12211 c-49 -31 -73 -74 -198 -356 -64 -143 -126 -276 -139 -295
-14 -19 -60 -74 -103 -122 -79 -86 -120 -154 -110 -181 9 -23 94 -30 296 -23
115 4 178 2 166 -3 -11 -5 -76 -26 -145 -45 -263 -76 -316 -130 -202 -206 98
-65 212 -75 477 -40 279 36 363 22 529 -87 142 -95 411 -390 531 -584 203
-327 504 -1127 795 -2109 128 -432 207 -673 291 -883 98 -246 158 -352 368
-656 227 -327 317 -485 361 -630 28 -90 24 -136 -27 -365 -34 -153 -36 -172
-41 -397 -7 -348 8 -428 115 -596 109 -171 130 -209 151 -266 12 -32 22 -77
22 -100 -1 -60 -40 -165 -103 -271 -30 -50 -98 -172 -152 -270 -126 -232 -186
-325 -275 -422 -138 -151 -160 -199 -160 -353 0 -153 54 -439 137 -726 67
-231 90 -335 99 -441 6 -74 4 -86 -19 -135 -14 -30 -57 -89 -96 -132 -103
-113 -116 -141 -116 -257 0 -170 49 -251 189 -315 171 -78 312 -93 399 -42
124 74 314 241 393 349 123 166 111 307 -48 566 -111 181 -141 267 -160 458
-10 105 -9 138 5 240 22 160 44 202 175 334 58 58 165 171 238 251 170 187
257 267 334 308 l62 33 46 -18 c27 -10 72 -41 105 -73 104 -99 148 -234 149
-456 0 -100 -6 -152 -38 -315 l-39 -195 1 -315 c0 -201 7 -395 18 -535 17
-216 16 -303 -6 -415 -20 -107 -54 -148 -225 -273 -163 -120 -175 -150 -90
-232 97 -95 344 -213 562 -270 119 -31 170 -29 259 13 118 56 190 144 230 282
25 86 75 396 96 594 27 253 35 302 79 509 60 277 62 292 70 742 9 529 7 522
160 513 188 -12 526 -178 663 -327 76 -82 83 -112 72 -309 -15 -281 -11 -366
21 -452 39 -107 90 -204 211 -407 204 -343 404 -776 404 -875 0 -18 -16 -69
-35 -113 -19 -44 -35 -92 -35 -106 0 -55 130 -169 279 -244 74 -37 308 -108
462 -141 46 -9 130 -18 186 -18 87 -1 105 2 130 20 39 28 61 78 86 191 30 141
29 488 -3 858 -30 343 -33 739 -7 885 21 123 60 259 97 338 54 115 96 152 175
152 65 0 136 -36 332 -168 261 -175 840 -468 1103 -557 213 -72 234 -83 905
-480 877 -519 1324 -764 1570 -860 115 -46 207 -55 213 -22 13 64 -215 364
-598 787 -436 482 -1456 1522 -1735 1770 -211 187 -344 325 -657 686 -407 468
-550 642 -681 828 -259 366 -450 604 -564 701 -39 34 -135 105 -212 159 -188
131 -261 196 -424 374 -268 292 -357 361 -872 672 -121 74 -317 198 -435 278
-330 221 -505 299 -746 331 -44 6 -176 18 -294 26 -118 8 -251 19 -295 25 -44
5 -167 16 -274 25 -227 18 -310 34 -408 81 -143 68 -258 178 -471 451 -221
283 -402 587 -679 1138 -97 192 -222 435 -278 540 -179 332 -261 506 -325 685
-97 273 -199 447 -490 835 -297 395 -609 743 -838 932 -87 73 -137 100 -275
150 -67 24 -142 57 -168 74 -26 16 -93 79 -149 139 -80 86 -115 116 -165 141
-83 41 -167 49 -212 20z"/>
</g>
</svg>
